<svg width="215" height="224" viewBox="0 0 215 224" fill="none" xmlns="http://www.w3.org/2000/svg">
<path d="M117.984 212.419C108.595 207.312 100.367 199.597 89.9626 197.154C81.9046 195.262 73.4646 196.783 65.4071 198.68C57.3506 200.576 49.2276 202.864 40.9591 202.49C32.6903 202.116 24.0317 198.524 19.9838 191.304C15.1756 182.727 18.1252 171.895 22.5758 163.127C27.0266 154.36 32.982 145.973 34.2016 136.216C35.6136 124.916 30.3721 113.844 24.0723 104.358C17.7723 94.8706 10.201 86.0536 5.95744 75.4856C2.58264 67.0821 1.99789 56.2356 8.68909 50.1336C13.5106 45.7366 20.6547 45.1476 27.1686 45.5366C33.6824 45.9246 40.3626 47.0406 46.6296 45.2236C54.1091 43.0546 59.8151 37.0351 64.4476 30.7746C69.0796 24.5151 73.1171 17.6721 79.0176 12.5896C84.9176 7.5071 93.3791 4.4471 100.595 7.37709C107.796 10.3016 111.589 18.0206 117.02 23.5801C125.948 32.7176 139.36 35.8881 152.114 36.6211C156.848 36.8936 161.602 36.8891 166.354 36.8851C174.404 36.8781 182.445 36.8716 190.366 38.2066C197.893 39.4756 205.703 42.3021 210.162 48.4981C215.128 55.3991 214.726 64.9981 211.585 72.8986C208.444 80.7991 202.956 87.4911 198.011 94.4071C193.067 101.323 188.479 108.914 187.604 117.371C185.625 136.493 202.579 152.197 207.046 170.895C208.659 177.645 208.218 185.664 203.061 190.308C200.189 192.893 196.331 194.004 192.806 195.587C187.725 197.868 183.174 201.286 179.51 205.474C176.799 208.573 174.941 212.197 171.254 214.241C161.448 219.677 147.993 220.462 137.149 218.807C130.459 217.786 123.932 215.654 117.984 212.419Z" fill="#E1E7FF"/>
<path d="M141.604 201.062C141.604 201.062 148.074 211.262 147.328 225.832C147.328 225.832 112.735 228.989 90.0873 224.618C86.1928 224.132 88.6053 202.229 90.2173 197.153C91.8293 192.078 138.617 190.135 141.604 201.062Z" fill="#1B1623"/>
<path d="M145.521 57.6699C151.909 60.0754 156.141 67.2219 155.178 73.9799C154.837 76.3819 153.925 78.6639 153.409 81.0349C152.894 83.4054 152.817 86.0204 154.042 88.1144C156.558 92.4164 163.566 93.0559 164.988 97.8329C165.828 100.657 164.212 103.591 162.475 105.972C160.739 108.352 158.726 110.831 158.654 113.777C158.575 116.981 160.937 119.843 163.782 121.32C166.627 122.797 169.899 123.164 173.086 123.505C164.688 132.178 97.0463 131.396 83.4238 122.53C86.1623 122.57 88.9658 122.599 91.5533 121.702C94.1413 120.806 96.5128 118.781 97.0373 116.093C97.6713 112.845 95.5558 109.356 96.7703 106.277C97.7268 103.852 100.419 102.614 102.953 102.002C105.488 101.39 108.203 101.125 110.368 99.6729C112.72 98.0954 114.036 95.3394 114.654 92.5754C115.272 89.8109 115.299 86.9524 115.677 84.1454C117.359 71.6764 130.571 52.0409 145.521 57.6699Z" fill="#1B1623"/>
<path d="M57.532 131.114C55.4875 129.074 52.223 127.181 50.084 126.279C47.818 125.321 47.798 124.705 49.949 124.885C51.84 125.075 53.4075 125.756 53.595 125.508C53.6855 125.39 52.4615 124.798 50.6025 124.138C48.6905 123.462 47.283 123.038 47.502 122.373C47.769 121.612 53.231 122.774 54.4685 123.561C55.8315 124.152 50.943 121.223 48.975 120.715C46.853 120.024 47.5115 119.052 50.463 119.619C53.3905 120.245 55.4965 121.571 56.256 121.707C55.9285 121.21 55.439 120.604 52.8485 119.121C50.8805 118.106 51.6795 117.391 53.96 118.065C56.7185 118.861 59.515 121.764 60.2715 121.474C60.6855 120.981 59.958 120.224 59.5135 118.032C59.047 115.871 61.0855 117.998 62.1895 120.182C63.368 122.395 64.9395 124.849 65.478 127.031C66.22 129.954 66.0795 132.318 64.558 133.824C62.927 135.424 61.5985 135.292 57.532 131.114Z" fill="#DC716F"/>
<path d="M61.4277 128.022C61.4167 128.022 61.4042 128.019 61.3922 128.011C61.0422 127.791 60.7367 127.494 60.3962 127.259C60.0512 127.019 59.6767 126.822 59.2842 126.674C58.5762 126.406 57.8497 126.313 57.1032 126.313C57.0027 126.313 56.9012 126.315 56.7997 126.318C56.7987 126.318 56.7977 126.318 56.7967 126.318C56.7037 126.318 56.6872 126.175 56.7777 126.153C57.0782 126.077 57.3892 126.042 57.7027 126.042C58.2842 126.042 58.8712 126.162 59.4067 126.362C59.8272 126.518 60.2302 126.725 60.5997 126.98C60.9422 127.217 61.3097 127.529 61.4882 127.914C61.5102 127.963 61.4757 128.022 61.4277 128.022Z" fill="#B1494B"/>
<path d="M102.987 132.698C106.839 136.083 103.847 141.516 98.6935 149.428C94.5975 155.716 81.9516 173.272 72.1196 171.868C64.6691 170.803 55.8376 133.992 56.7646 133.05C57.6921 132.107 65.5606 129.247 66.8396 130.395C68.1176 131.542 75.2801 151.307 75.3131 155.688C77.6986 152.061 82.4771 146.677 87.9331 140.072C91.7755 135.42 99.1351 129.311 102.987 132.698Z" fill="#2E56E4"/>
<path d="M89.0233 160.01C89.5328 164.033 93.7043 167.651 94.8863 169.688C96.5548 172.563 96.7703 176.052 95.3443 179.054C93.0498 183.886 87.3628 198.368 88.8333 200.054C102.538 215.769 140.072 206.815 143.828 204.436C146.765 202.577 130.854 180.832 130.854 180.832C131.688 164.815 141.724 146.287 140.01 139.048C139.323 136.152 136.533 132.118 132.776 130.856C131.706 130.501 130.619 130.174 129.531 129.883C127.318 129.285 125.104 128.825 123.113 128.504C121.555 128.263 120.123 128.095 118.925 128.015C117.387 127.914 115.54 127.952 113.576 128.114C111.524 128.284 109.339 128.584 107.256 129.008C106.938 129.074 106.62 129.14 106.309 129.214C105.045 129.488 103.835 129.816 102.725 130.18C102.599 130.215 102.48 130.251 102.36 130.294C101.98 130.422 101.614 130.558 101.27 130.696C99.9453 131.213 98.5993 131.589 98.0638 132.437C92.6033 141.088 87.9158 151.269 89.0233 160.01Z" fill="#466EFA"/>
<path d="M112.212 133.585C115.009 133.723 120.273 131.894 121.739 130.541C123.205 129.188 120.724 127.948 116.102 128.117C111.479 128.286 108.153 129.977 108.153 131.725C108.153 133.473 110.238 133.488 112.212 133.585Z" fill="#D379C3"/>
<path d="M83.0613 182.975C83.0613 182.975 84.0483 184.797 84.4838 184.724C85.0658 184.628 85.1303 182.617 85.0228 182.471C84.8643 182.256 82.0263 167.864 81.1333 163.323C80.9868 162.578 80.2528 162.11 79.5143 162.283C78.7928 162.452 78.3463 163.176 78.5183 163.897L83.0613 182.975Z" fill="#211A29"/>
<path d="M91.0245 167.683L98.9715 168.973L96.823 177.88L89.418 176.224L91.0245 167.683Z" fill="#DC716F"/>
<path d="M81.2008 167.094C79.8458 167.427 76.6948 169.302 75.9528 171.055C75.1703 172.906 77.3803 174.256 77.9723 174.542C77.1808 176.499 79.6598 176.89 79.6598 176.89C79.6163 178.788 81.9288 178.483 81.9608 178.122C82.1968 179.305 84.2998 179.432 84.9728 178.942C85.4428 178.6 85.6778 178.118 85.8193 177.555C85.8118 177.585 91.2103 177.571 92.1058 175.244C93.0018 172.915 93.4363 168.815 92.0243 168.024C90.6123 167.233 82.5563 166.761 81.2008 167.094Z" fill="#DC716F"/>
<path d="M84.0375 178.624L84.002 178.557C84.179 178.39 84.339 178.215 84.451 177.989C84.505 177.879 84.556 177.767 84.59 177.646C84.6135 177.562 84.6355 177.478 84.654 177.393C84.6645 177.311 84.7325 177.289 84.8045 177.289C84.8725 177.289 84.944 177.309 84.974 177.315C85.0725 177.338 85.172 177.352 85.27 177.358C85.3715 177.365 85.54 177.436 85.588 177.442C85.6355 177.448 85.649 177.514 85.616 177.54C85.587 177.563 85.4985 177.57 85.4105 177.57C85.3635 177.57 85.317 177.568 85.28 177.566C85.1835 177.559 85.087 177.541 84.99 177.52L85.0635 177.618C85.1205 177.703 85.1695 177.794 85.2085 177.889C85.248 177.986 85.265 178.096 85.275 178.198C85.2775 178.223 85.2625 178.236 85.245 178.236C85.229 178.236 85.2105 178.224 85.2035 178.203C85.1725 178.111 85.1285 178.028 85.0865 177.941C85.047 177.858 85 177.779 84.9455 177.707C84.897 177.644 84.842 177.588 84.788 177.531C84.784 177.6 84.7765 177.668 84.76 177.734C84.7265 177.87 84.68 178.001 84.611 178.117C84.4755 178.343 84.281 178.544 84.0375 178.624Z" fill="#B1494B"/>
<path d="M78.0756 174.352C78.0401 174.352 78.0001 174.311 78.0161 174.268C78.2071 173.738 78.4446 173.242 78.6971 172.763L78.6706 172.757L78.6191 172.702L78.5661 172.629L78.5316 172.569C78.4886 172.586 78.4486 172.609 78.4026 172.621C78.2751 172.655 78.1276 172.685 77.9801 172.685C77.8561 172.685 77.7326 172.663 77.6221 172.604L77.6271 172.52C77.7441 172.494 77.8681 172.494 77.9886 172.49C78.1081 172.486 78.2246 172.469 78.3376 172.44C78.3896 172.428 78.4376 172.407 78.4881 172.391V172.386L78.5891 172.353L78.5976 172.355C78.7306 172.305 78.8586 172.245 78.9731 172.164L79.0091 172.172C79.0541 172.095 79.0906 172.014 79.1371 171.938C79.3456 171.599 79.5671 171.274 79.8001 170.963C80.0231 170.664 80.2476 170.319 80.5411 170.097C80.5526 170.089 80.5651 170.085 80.5781 170.085C80.6371 170.085 80.7026 170.163 80.6696 170.216C80.4736 170.531 80.1781 170.797 79.9466 171.098C79.7041 171.412 79.4751 171.743 79.2591 172.087C78.8261 172.779 78.4476 173.532 78.1151 174.323C78.1066 174.343 78.0916 174.352 78.0756 174.352Z" fill="#B1494B"/>
<path d="M79.6694 176.77C79.6389 176.77 79.6054 176.74 79.6149 176.701C79.8134 175.839 80.1124 175.02 80.4729 174.226C80.8209 173.458 81.2094 172.697 81.7249 172.041C81.7349 172.028 81.7479 172.023 81.7604 172.023C81.7929 172.023 81.8244 172.059 81.8034 172.097C81.3849 172.849 80.9374 173.578 80.5824 174.368C80.2389 175.131 79.9629 175.932 79.7114 176.737C79.7039 176.76 79.6869 176.77 79.6694 176.77Z" fill="#B1494B"/>
<path d="M81.9701 177.926C81.8786 177.344 81.9101 176.754 82.0136 176.173C82.0646 175.887 82.1326 175.601 82.2131 175.322C82.2546 175.178 82.2995 175.035 82.349 174.893C82.3755 174.817 82.4105 174.737 82.4555 174.664L82.4326 174.551L82.423 174.49L82.4201 174.432L82.4175 174.371L82.4235 174.325L82.437 174.301L82.5011 174.299L82.5131 174.314L82.5205 174.312L82.5665 174.346L82.581 174.395L82.5915 174.459L82.61 174.573L82.6295 174.598C82.648 174.721 82.5925 174.853 82.5535 174.968C82.508 175.101 82.4655 175.236 82.427 175.372C82.347 175.651 82.2845 175.934 82.233 176.22C82.131 176.784 82.0826 177.354 82.0261 177.924L81.9701 177.926Z" fill="#B1494B"/>
<path d="M131.694 132.721C137.63 132.542 141.285 138.629 140.866 143.479C140.448 148.328 138.006 173.3 133.049 181.906C129.566 187.951 93.8786 179.187 93.2171 178.042C92.5551 176.898 94.0371 168.792 95.4831 167.865C96.9296 166.937 115.788 169.592 120.02 170.725C121.036 165.366 122.912 152.774 124.347 144.328C125.518 137.441 125.715 132.901 131.694 132.721Z" fill="#2E56E4"/>
<path d="M110.322 130.403C110.322 130.403 108.975 132.087 112.564 132.233C116.153 132.379 119.836 129.732 119.836 129.732L118.954 117.213L109.44 117.883L110.322 130.403Z" fill="#DC716F"/>
<path d="M109.989 125.664L109.791 122.854C109.792 122.854 109.791 122.854 109.791 122.854L109.989 125.664Z" fill="#160F17"/>
<path d="M111.245 125.71C110.824 125.71 110.406 125.692 109.989 125.662L109.791 122.852C110.489 122.9 111.17 122.923 111.834 122.923C112.379 122.923 112.913 122.907 113.435 122.876C115.551 122.752 117.49 122.38 119.278 121.797L119.399 123.514C117.248 124.583 114.95 125.398 112.555 125.645C112.116 125.691 111.679 125.71 111.245 125.71Z" fill="#BA5456"/>
<path d="M91.713 72.4172C94.1975 67.9142 99.114 64.8537 104.251 64.6112C105.008 64.5757 105.796 64.6037 106.472 64.9452C107.148 65.2862 107.678 66.0162 107.571 66.7657C107.51 67.1942 107.259 67.5672 107.014 67.9237C104.354 71.8027 101.695 75.6812 99.034 79.5597C97.6005 81.6507 93.461 89.2337 90.852 84.7817C88.8045 81.2882 89.874 75.7492 91.713 72.4172Z" fill="#211A29"/>
<path d="M89.0585 96.652C88.006 102.333 88.315 107.717 90.488 112.107C92.9235 117.071 97.723 120.78 105.562 122.292C105.953 122.37 106.353 122.438 106.753 122.506C113.435 123.563 118.675 122.553 122.938 120.211L122.946 120.207C129.718 116.453 134.02 109.305 137.683 101.651C138.046 100.888 138.402 100.13 138.753 99.365C138.813 99.2245 138.877 99.0905 138.944 98.9455L138.946 98.9395C143.238 89.5435 141.796 79.0635 135.393 72.2575C132.584 69.2785 128.831 66.9985 124.198 65.8325C106.584 61.4085 97.2995 70.3585 90.8655 89.957C90.078 92.207 89.4605 94.45 89.0585 96.652Z" fill="#DC716F"/>
<path d="M119.277 121.799V121.797C120.574 121.374 121.791 120.841 122.938 120.211L122.946 120.207L122.937 120.212C121.791 120.842 120.574 121.376 119.277 121.799Z" fill="#1B1421"/>
<path d="M113.433 122.877C115.548 122.752 117.487 122.379 119.276 121.796V121.798C117.487 122.381 115.548 122.753 113.433 122.877Z" fill="#B84E52"/>
<path d="M111.842 122.925C110.244 122.924 108.55 122.789 106.753 122.504C106.348 122.438 105.952 122.368 105.563 122.292L105.517 122.225C102.762 118.152 104.128 112.329 108.591 109.201C110.437 107.906 112.526 107.28 114.534 107.28C117.371 107.28 120.049 108.529 121.664 110.906C123.43 113.505 124.124 117.227 122.945 120.208L122.937 120.212C121.79 120.842 120.573 121.375 119.276 121.798C117.488 122.381 115.549 122.754 113.433 122.878C112.914 122.909 112.383 122.925 111.842 122.925Z" fill="#DA696A"/>
<path d="M90.4885 112.107C90.234 111.592 90.005 111.064 89.8005 110.523C90.005 111.064 90.234 111.592 90.4885 112.107C90.4885 112.107 90.4885 112.107 90.4885 112.107ZM88.9615 107.624C88.2565 104.251 88.34 100.52 89.0545 96.6479C89.056 96.6489 89.0575 96.6494 89.059 96.6504C89.059 96.6509 89.059 96.6514 89.059 96.6519C88.342 100.521 88.257 104.251 88.9615 107.624Z" fill="#E1D1EC"/>
<path d="M90.4881 112.107C90.2336 111.592 90.0046 111.064 89.8001 110.523C89.4486 109.592 89.1701 108.624 88.9611 107.624C88.2566 104.251 88.3416 100.521 89.0586 96.6519C89.0586 96.6514 89.0586 96.6509 89.0586 96.6504C91.0731 97.6834 92.7161 100.355 93.1411 103.682C93.5961 107.31 92.4621 110.634 90.4886 112.107" fill="#DA696A"/>
<path d="M112.846 99.527C112.451 100.658 112.806 101.809 113.637 102.099C114.469 102.389 115.463 101.707 115.857 100.576C116.251 99.4455 115.896 98.294 115.065 98.004C114.233 97.7145 113.24 98.396 112.846 99.527Z" fill="#211A29"/>
<path d="M94.4481 93.1137C94.0801 94.1702 94.4116 95.2462 95.1881 95.5167C95.9651 95.7877 96.8936 95.1507 97.2616 94.0942C97.6301 93.0372 97.2991 91.9617 96.5216 91.6907C95.7451 91.4202 94.8166 92.0567 94.4481 93.1137Z" fill="#211A29"/>
<path d="M101.108 104.431C103.065 104.904 104.645 102.774 106.159 104.585C107.365 106.028 105.483 108.809 100.687 108.183C96.0321 107.577 96.0386 104.342 97.1551 103.561C98.2716 102.781 98.7856 103.869 101.108 104.431Z" fill="white"/>
<path d="M119.728 91.2415C119.581 89.956 118.884 88.5255 117.788 87.763C116.465 86.8425 114.55 86.973 113.325 87.9595C113.178 88.0775 113.029 88.2614 113.109 88.4319C113.26 88.7529 113.921 88.6144 114.188 88.6059C115.093 88.5784 116.052 88.5525 116.851 89.05C117.317 89.3395 117.666 89.7745 118.006 90.2005C118.411 90.709 118.784 91.2345 119.224 91.7175C119.307 91.809 119.414 91.9075 119.536 91.8895C119.708 91.865 119.756 91.6455 119.747 91.4755C119.743 91.399 119.737 91.321 119.728 91.2415Z" fill="#211A29"/>
<path d="M95.3135 83.558C95.701 83.061 96.309 82.611 96.8475 82.291C97.353 81.9915 97.9365 81.7935 98.522 81.838C99.532 81.9135 100.363 82.693 100.746 83.5945C100.851 83.8415 100.996 84.15 100.869 84.418C100.829 84.501 100.744 84.569 100.653 84.5585C100.593 84.552 100.542 84.5135 100.494 84.476C100.067 84.145 99.7205 83.846 99.244 83.578C98.535 83.1795 98.0015 83.1405 97.24 83.409C96.5895 83.6385 95.9805 84.0045 95.295 84.1265C95.206 84.142 95.0875 84.139 95.0575 84.0535C95.0405 84.0035 95.064 83.95 95.089 83.9035C95.155 83.78 95.2305 83.665 95.3135 83.558Z" fill="#211A29"/>
<path d="M99.3479 102.425C99.3044 102.425 99.2619 102.41 99.2299 102.377C98.9589 102.099 98.7879 101.685 98.6129 101.342C98.4294 100.983 98.2454 100.624 98.0704 100.261C97.8999 99.9068 97.7154 99.5553 97.5589 99.1938C97.4244 98.8838 97.4524 98.4833 97.8299 98.3653C97.9014 98.3428 97.9729 98.3353 98.0449 98.3353C98.1259 98.3353 98.2069 98.3443 98.2894 98.3513C98.4989 98.3693 98.7089 98.3873 98.9184 98.4048C99.3374 98.4398 99.7569 98.4738 100.176 98.5143C100.513 98.5458 100.851 98.5773 101.189 98.6103C101.375 98.2173 101.615 97.8368 101.79 97.4558C102.074 96.8373 102.316 96.2063 102.5 95.5513C102.684 94.8948 102.815 94.2238 102.906 93.5488C102.99 92.9228 102.954 92.2223 103.126 91.6143C103.15 91.5318 103.217 91.4918 103.285 91.4918C103.352 91.4918 103.419 91.5308 103.447 91.6068C103.679 92.2408 103.591 93.0433 103.519 93.7008C103.441 94.4033 103.294 95.0938 103.086 95.7688C102.885 96.4213 102.636 97.0678 102.328 97.6773C102.166 97.9978 101.984 98.3543 101.764 98.6758C102.035 98.7153 102.307 98.7773 102.534 98.9163C102.692 99.0138 102.659 99.2358 102.49 99.2983C102.298 99.3698 102.082 99.3918 101.868 99.3918C101.727 99.3918 101.586 99.3823 101.453 99.3708C101.347 99.3623 101.242 99.3498 101.137 99.3403L101.007 99.3278C100.796 99.3063 100.585 99.2863 100.375 99.2663C99.6854 99.1983 98.9964 99.1203 98.3079 99.0453L98.2329 99.0413C98.2899 99.1578 98.3369 99.2908 98.3839 99.3943C98.5244 99.7058 98.6689 100.016 98.8049 100.33C98.9409 100.644 99.0739 100.96 99.2064 101.276C99.3339 101.58 99.4964 101.915 99.5299 102.246C99.5409 102.353 99.4429 102.425 99.3479 102.425Z" fill="#B1494B"/>
<path d="M120.35 80.1108C121.59 83.3983 121.869 87.5703 122.321 91.1948C124.835 106.377 131.545 104.753 136.107 103.128C140.204 101.669 142.569 100.209 138.605 110.927C159.291 92.3883 150.962 71.1358 133.093 64.3028C116.757 58.0563 102.564 62.6803 101.202 68.6483C101.501 69.6723 102.394 69.5773 104.087 69.7753C111.942 69.7558 117.65 73.6658 120.35 80.1108Z" fill="#211A29"/>
<path d="M130.997 110.426C131.211 112.781 134.561 114.439 137.908 113.196C141.255 111.953 144.798 106.569 143.467 102.832C142.136 99.0953 136.723 99.2703 133.852 102.615C131.684 105.14 130.83 108.589 130.997 110.426Z" fill="#DC716F"/>
<path d="M134.583 108.685C134.429 108.685 134.266 108.541 134.307 108.359C134.642 106.868 135.646 105.562 136.879 104.685C137.488 104.252 138.183 103.923 138.896 103.703C139.31 103.575 139.809 103.432 140.282 103.432C140.551 103.432 140.81 103.478 141.041 103.599C141.187 103.677 141.187 103.897 141.047 103.98C140.486 104.308 139.746 104.301 139.129 104.494C138.867 104.575 138.617 104.683 138.369 104.796C138.419 104.855 138.465 104.917 138.51 104.98C138.612 105.118 138.695 105.265 138.774 105.416C138.937 105.728 139.082 106.055 139.189 106.39C139.399 107.055 139.544 107.789 139.267 108.454C139.243 108.511 139.198 108.534 139.15 108.534C139.08 108.534 139.005 108.486 138.979 108.422C138.743 107.834 138.696 107.194 138.505 106.592C138.411 106.295 138.305 106.003 138.167 105.723C138.099 105.585 138.026 105.451 137.957 105.314C137.918 105.238 137.87 105.16 137.833 105.08C137.67 105.174 137.502 105.259 137.346 105.366C136.189 106.163 135.395 107.299 134.79 108.55C134.744 108.645 134.665 108.685 134.583 108.685Z" fill="#B1494B"/>
<path d="M132.834 116.655C132.955 115.032 134.105 113.794 135.403 113.891C136.7 113.987 137.655 115.382 137.533 117.006C137.412 118.629 136.262 119.867 134.965 119.77C133.667 119.674 132.713 118.279 132.834 116.655ZM131.578 116.562C131.392 119.058 132.856 121.202 134.846 121.35C136.838 121.498 138.603 119.596 138.789 117.1C138.975 114.603 137.511 112.459 135.521 112.311C133.53 112.163 131.764 114.066 131.578 116.562Z" fill="#F89D23"/>
<path d="M122.9 44.4784L119.104 19.4034L96.9066 2.86092C95.5251 1.83092 93.5656 2.14792 92.5786 3.55992L77.0586 25.7684L80.8546 50.8439C81.1621 52.8744 83.0576 54.2719 85.0886 53.9644L119.78 48.7124C121.81 48.4054 123.208 46.5094 122.9 44.4784Z" fill="#0428A5"/>
<path d="M118.258 47.4424L83.5671 52.6939C81.5366 53.0014 79.6406 51.6044 79.3336 49.5734L75.5371 24.4984L117.583 18.1334L121.379 43.2084C121.686 45.2394 120.289 47.1349 118.258 47.4424Z" fill="#0428A5"/>
<path d="M91.0576 2.29053L75.5371 24.499L117.583 18.134L95.3856 1.59153C94.0036 0.561529 92.0446 0.878029 91.0576 2.29053Z" fill="#2E56E4"/>
<path d="M113.146 16.6053L78.4912 21.8513L82.6842 49.5488L117.339 44.3028L113.146 16.6053Z" fill="#E5E8C7"/>
<path d="M118.258 47.4424L83.5671 52.6939C81.5366 53.0014 79.6406 51.6044 79.3336 49.5734L75.5371 24.4984L98.3201 37.5764L117.583 18.1334L121.379 43.2084C121.686 45.2394 120.289 47.1349 118.258 47.4424Z" fill="#2E56E4"/>
<path d="M123.601 16.3024C124.101 19.6054 121.829 22.6888 118.525 23.1888C115.222 23.6888 112.138 21.4163 111.638 18.1133C111.138 14.8093 113.411 11.7264 116.714 11.2264C120.018 10.7264 123.101 12.9989 123.601 16.3024Z" fill="#F87C23"/>
<path d="M121.717 14.2387C121.678 14.0967 121.516 13.9437 121.356 13.9637C120.998 14.0092 120.859 14.2042 120.664 14.4892L120.189 15.1838C119.85 15.6803 119.516 16.1798 119.181 16.6788C118.847 17.1778 118.512 17.6772 118.178 18.1762C118.022 18.4092 117.866 18.6417 117.71 18.8747C117.624 19.0027 117.513 19.2428 117.386 19.3983L117.305 19.3187C117.221 19.2352 117.138 19.1512 117.055 19.0677C116.874 18.8867 116.688 18.7112 116.501 18.5372C116.221 18.2772 115.772 17.7218 115.355 17.7538C115.251 17.7623 115.192 17.8283 115.179 17.9298C115.131 18.3153 115.614 18.7597 115.839 19.0322C116.135 19.3912 116.435 19.7557 116.76 20.0892C117.068 20.4042 117.524 20.5548 117.895 20.2453C118.223 19.9728 118.445 19.5177 118.683 19.1657C119.224 18.3702 119.765 17.5747 120.305 16.7802C120.575 16.3822 120.844 15.9838 121.111 15.5838C121.361 15.2078 121.849 14.7202 121.717 14.2387Z" fill="white"/>
<path d="M201.116 89.2046L166.702 81.9781C165.052 81.6316 163.994 80.0126 164.341 78.3621L174.014 32.2991C174.361 30.6486 175.98 29.5916 177.63 29.9381L212.044 37.1646C213.695 37.5116 214.752 39.1306 214.405 40.7811L204.732 86.8441C204.386 88.4946 202.766 89.5516 201.116 89.2046Z" fill="#0428A5"/>
<path d="M199.562 88.2896L165.149 81.0631C163.498 80.7166 162.441 79.0975 162.787 77.4465L172.46 31.384C172.807 29.733 174.426 28.676 176.077 29.0225L210.491 36.249C212.141 36.596 213.199 38.215 212.852 39.8661L203.179 85.9286C202.832 87.5791 201.213 88.6366 199.562 88.2896Z" fill="#2E56E4"/>
<path d="M179.677 50.1665C179.4 51.486 178.106 52.3305 176.787 52.054C175.468 51.7765 174.623 50.4825 174.9 49.1635C175.177 47.845 176.471 47 177.79 47.277C179.109 47.554 179.954 48.8475 179.677 50.1665Z" fill="white"/>
<path d="M178.094 57.7004C177.817 59.0194 176.523 59.8644 175.204 59.5869C173.885 59.3099 173.04 58.0164 173.317 56.6974C173.594 55.3779 174.888 54.5334 176.207 54.8104C177.526 55.0874 178.371 56.3814 178.094 57.7004Z" fill="white"/>
<path d="M176.533 65.1351C176.256 66.4536 174.963 67.2986 173.643 67.0216C172.324 66.7446 171.48 65.4511 171.757 64.1321C172.033 62.8126 173.327 61.9681 174.646 62.2446C175.966 62.5221 176.81 63.8156 176.533 65.1351Z" fill="white"/>
<path d="M175.093 71.9999C174.816 73.3194 173.522 74.1639 172.203 73.8869C170.884 73.6099 170.039 72.3159 170.316 70.9969C170.593 69.6779 171.887 68.8329 173.206 69.1104C174.525 69.3874 175.37 70.6814 175.093 71.9999Z" fill="white"/>
<path d="M205.033 46.1572L177.225 40.3177L178.043 36.4232L205.851 42.2632L205.033 46.1572Z" fill="#211A29"/>
<path d="M201.539 55.5859L180.967 51.2659L181.37 49.3464L201.942 53.6664L201.539 55.5859Z" fill="#211A29"/>
<path d="M199.931 63.2412L179.359 58.9207L179.762 57.0012L200.334 61.3217L199.931 63.2412Z" fill="#211A29"/>
<path d="M198.448 70.2969L177.876 65.9769L178.279 64.0574L198.851 68.3774L198.448 70.2969Z" fill="#211A29"/>
<path d="M196.865 77.8467L176.293 73.5262L176.696 71.6072L197.268 75.9272L196.865 77.8467Z" fill="#211A29"/>
<path d="M181.655 46.9003C181.077 46.7358 180.496 46.9513 179.985 47.2273C179.434 47.5253 178.95 47.9483 178.508 48.3888C178.275 48.6208 178.049 48.8618 177.822 49.0993C177.609 49.3218 177.395 49.5918 177.144 49.7703L177.092 49.8023C177.073 49.7343 177.045 49.6623 177.025 49.6003C176.977 49.4493 176.927 49.2988 176.875 49.1483C176.762 48.8218 176.669 48.4213 176.453 48.1468C176.386 48.0618 176.223 48.0663 176.205 48.1938C176.15 48.5668 176.278 48.9803 176.348 49.3468C176.407 49.6503 176.422 50.0968 176.651 50.3288C177.225 50.9123 177.978 49.9538 178.351 49.5793C178.86 49.0693 179.361 48.5358 179.947 48.1138C180.498 47.7178 181.111 47.4798 181.705 47.1698C181.829 47.1048 181.766 46.9318 181.655 46.9003Z" fill="#0428A5"/>
<path d="M180.053 54.536C179.475 54.371 178.894 54.587 178.383 54.863C177.832 55.1615 177.348 55.584 176.906 56.024C176.673 56.257 176.447 56.497 176.22 56.735C176.007 56.9575 175.793 57.227 175.542 57.406L175.49 57.4375C175.471 57.3705 175.443 57.2985 175.423 57.236C175.375 57.0845 175.324 56.934 175.273 56.784C175.16 56.457 175.067 56.0575 174.851 55.7825C174.784 55.6975 174.621 55.7025 174.603 55.829C174.549 56.203 174.676 56.6165 174.747 56.982C174.805 57.286 174.82 57.7325 175.049 57.9645C175.623 58.548 176.376 57.5895 176.749 57.215C177.258 56.705 177.759 56.172 178.345 55.7495C178.896 55.353 179.509 55.1155 180.103 54.8055C180.227 54.741 180.164 54.5675 180.053 54.536Z" fill="#0428A5"/>
<path d="M57.8747 65.882C51.8877 62.829 13.7229 67.4625 10.8489 71.1105C7.97481 74.758 8.71976 100.138 14.9778 101.359C21.2358 102.58 58.6537 98.478 61.9067 94.2355C65.1597 89.993 62.1227 68.0485 57.8747 65.882Z" fill="#0428A5"/>
<path d="M44.5 94.4767L60.46 107.681L55.448 92.8872L44.5 94.4767Z" fill="#0428A5"/>
<path d="M56.2153 64.7114C50.2283 61.6585 12.0638 66.292 9.18975 69.9395C6.31555 73.5875 7.06065 98.967 13.3187 100.187C19.5765 101.409 56.9943 97.3075 60.2473 93.0645C63.5003 88.8225 60.4633 66.8774 56.2153 64.7114Z" fill="#2E56E4"/>
<path d="M42.8408 93.3068L58.8013 106.51L53.7893 91.7163L42.8408 93.3068Z" fill="#2E56E4"/>
<path d="M24.8109 83.4629C25.0156 85.0179 23.9205 86.4449 22.3652 86.6494C20.8099 86.8534 19.3834 85.7589 19.1789 84.2034C18.9744 82.6479 20.0695 81.2219 21.6248 81.0169C23.1801 80.8124 24.6066 81.9079 24.8109 83.4629Z" fill="white"/>
<path d="M36.9641 81.8662C37.1686 83.4212 36.0736 84.8482 34.5186 85.0527C32.9632 85.2567 31.5366 84.1617 31.3321 82.6062C31.1278 81.0512 32.2227 79.6247 33.778 79.4202C35.3336 79.2157 36.7601 80.3107 36.9641 81.8662Z" fill="white"/>
<path d="M48.5258 80.3471C48.7298 81.9021 47.6353 83.3286 46.0798 83.5331C44.5243 83.7376 43.0978 82.6421 42.8938 81.0871C42.6888 79.5321 43.7838 78.1051 45.3393 77.9006C46.8948 77.6966 48.3213 78.7911 48.5258 80.3471Z" fill="white"/>
<path d="M161.963 155.421C161.963 169.345 173.25 180.632 187.174 180.632C201.097 180.632 212.385 169.345 212.385 155.421C212.385 141.497 201.097 130.21 187.174 130.21C173.25 130.21 161.963 141.497 161.963 155.421Z" fill="#0428A5"/>
<path d="M180.61 174.515C180.241 174.638 170.405 191.484 170.528 191.115C170.65 190.745 165.363 185.951 165.363 185.951L158.354 202.182L163.15 176.974L169.298 182.139L172.74 171.318L180.61 174.515Z" fill="#0428A5"/>
<path d="M161.186 153.475C161.186 167.398 172.473 178.686 186.397 178.686C200.32 178.686 211.608 167.398 211.608 153.475C211.608 139.551 200.32 128.264 186.397 128.264C172.473 128.264 161.186 139.551 161.186 153.475Z" fill="white"/>
<path d="M179.831 172.568C179.462 172.691 169.626 189.536 169.748 189.168C169.871 188.799 164.584 184.003 164.584 184.003L157.575 200.234L162.371 175.027L168.519 180.191L171.962 169.371L179.831 172.568Z" fill="white"/>
<path d="M199.932 163.525C199.94 162.411 198.781 160.74 198.201 159.834C197.501 158.738 196.665 157.728 195.713 156.841C194.94 156.12 193.996 155.445 192.94 155.484C191.762 155.528 190.802 156.449 190.152 157.431C189.601 158.261 189.184 159.191 188.982 160.162C187.495 161.513 184.576 160.508 181.711 156.943C179.34 153.993 178.53 151.332 179.849 150.187C180.771 150.29 181.717 150.205 182.618 149.978C183.741 149.696 184.908 149.106 185.333 148.029C185.714 147.062 185.396 145.966 184.98 145.014C184.468 143.843 183.805 142.738 183.017 141.731C182.366 140.898 181.195 139.277 180.159 138.921C178.355 138.302 175.753 140.863 174.654 142.772C173.555 144.681 169.125 149.278 177.281 159.825C185.725 170.744 193.395 167.818 195.362 167.008C197.188 166.256 199.919 165.203 199.932 163.525Z" fill="#2E56E4"/>
<path d="M59.7697 186.025L8.42169 194.549L1.96094 150.904L50.6207 141.487L59.7697 186.025Z" fill="#0428A5"/>
<path d="M57.8464 184.758L6.49903 193.281L0.0380859 149.636L48.6984 140.22L57.8464 184.758Z" fill="white"/>
<path d="M17.0424 185.423L12.4907 186.297L9.21191 169.208L13.7637 168.334L17.0424 185.423Z" fill="#F87C23"/>
<path d="M27.0879 183.497L22.536 184.37L17.2207 156.668L21.7725 155.794L27.0879 183.497Z" fill="#2E56E4"/>
<path d="M37.6034 181.476L33.0514 182.35L28.1582 156.847L32.71 155.973L37.6034 181.476Z" fill="#466EFA"/>
<path d="M48.735 179.343L44.1835 180.217L38.208 149.072L42.7595 148.199L48.735 179.343Z" fill="#0428A5"/>
</svg>
